
    <svg width="42" height="42" viewBox="0 0 42 42" fill="none" xmlns="http://www.w3.org/2000/svg">
      <path opacity="0.15" fillRule="evenodd" clipRule="evenodd" d="M21 41C32.0457 41 41 32.0457 41 21C41 9.9543 32.0457 1 21 1C9.9543 1 1 9.9543 1 21C1 32.0457 9.9543 41 21 41ZM14 6L16 8V12L21 17C23 19 23 22 21 24L18 27C16 29 13 29 11 27L6 22C4 20 4 17 6 15L9 12L14 6Z" fill="url(#paint0_linear)"/>
      <path d="M21 3C10.5066 3 2 11.5066 2 22C2 32.4934 10.5066 41 21 41C31.4934 41 40 32.4934 40 22C40 11.5066 31.4934 3 21 3Z" stroke="url(#paint1_linear)" strokeWidth="0.25"/>
      <path d="M14 6L16 8V12L21 17C23 19 23 22 21 24L18 27C16 29 13 29 11 27L6 22C4 20 4 17 6 15L9 12L14 6Z" fill="url(#paint2_linear)" stroke="url(#paint3_linear)" strokeWidth="0.25"/>
      <path d="M16 8L18 6L20 8V11" stroke="url(#paint4_linear)" strokeWidth="1.5" strokeLinecap="round" strokeLinejoin="round"/>
      <circle cx="18.5" cy="20.5" r="2.5" fill="url(#paint5_linear)"/>
      <path d="M21 17L25 13M25 13L28 10M25 13L27 15" stroke="url(#paint6_linear)" strokeWidth="1.5" strokeLinecap="round" strokeLinejoin="round"/>
      <defs>
        <linearGradient id="paint0_linear" x1="7.26667" y1="1" x2="34.8" y2="35.1334" gradientUnits="userSpaceOnUse">
          <stop offset="0.259336" stopColor="#FFDB6E"/>
          <stop offset="1" stopColor="#FFBC5E"/>
        </linearGradient>
        <linearGradient id="paint1_linear" x1="7.26667" y1="3" x2="34.8" y2="37.1334" gradientUnits="userSpaceOnUse">
          <stop offset="0.259336" stopColor="#FFDB6E"/>
          <stop offset="1" stopColor="#FFBC5E"/>
        </linearGradient>
        <linearGradient id="paint2_linear" x1="8" y1="6" x2="21" y2="27" gradientUnits="userSpaceOnUse">
          <stop offset="0.259336" stopColor="#FFDB6E"/>
          <stop offset="1" stopColor="#FFBC5E"/>
        </linearGradient>
        <linearGradient id="paint3_linear" x1="8" y1="6" x2="21" y2="27" gradientUnits="userSpaceOnUse">
          <stop offset="0.259336" stopColor="#FFDB6E"/>
          <stop offset="1" stopColor="#FFBC5E"/>
        </linearGradient>
        <linearGradient id="paint4_linear" x1="16" y1="6" x2="20" y2="11" gradientUnits="userSpaceOnUse">
          <stop offset="0.259336" stopColor="#FFDB6E"/>
          <stop offset="1" stopColor="#FFBC5E"/>
        </linearGradient>
        <linearGradient id="paint5_linear" x1="16.5" y1="18" x2="20.5" y2="23" gradientUnits="userSpaceOnUse">
          <stop offset="0.259336" stopColor="#FFDB6E"/>
          <stop offset="1" stopColor="#FFBC5E"/>
        </linearGradient>
        <linearGradient id="paint6_linear" x1="21" y1="10" x2="28" y2="17" gradientUnits="userSpaceOnUse">
          <stop offset="0.259336" stopColor="#FFDB6E"/>
          <stop offset="1" stopColor="#FFBC5E"/>
        </linearGradient>
      </defs>
    </svg>
<svg width="100" height="100" viewBox="0 0 100 100" fill="none" xmlns="http://www.w3.org/2000/svg">
  <defs>
    <linearGradient id="guitarGradient" x1="0%" y1="0%" x2="100%" y2="100%">
      <stop offset="0%" style="stop-color:#FFDB6E; stop-opacity:1" />
      <stop offset="100%" style="stop-color:#FFBC5E; stop-opacity:1" />
    </linearGradient>
  </defs>
  <g fill="url(#guitarGradient)">
    <!-- Guitar body -->
    <ellipse cx="50" cy="60" rx="25" ry="35" />
    <!-- Soundhole -->
    <circle cx="50" cy="60" r="8" fill="none" stroke="url(#guitarGradient)" stroke-width="3"/>
    <!-- Guitar neck -->
    <rect x="45" y="5" width="10" height="50" />
    <!-- Guitar headstock -->
    <rect x="40" y="0" width="20" height="5" />
  </g>
</svg>
